<svg id="Layer_1" data-name="Layer 1" xmlns="http://www.w3.org/2000/svg" viewBox="0 0 160.9 226.73"><defs><style>.cls-1{fill:#00b5db;}.cls-2{fill:#e72286;}.cls-3{fill:#acc90e;}.cls-4{fill:#9b4392;}</style></defs><path class="cls-1" d="M341,273.84h42.7a37.76,37.76,0,0,1,37.48-37.75v-42.7A80.45,80.45,0,0,0,341,273.84Z" transform="translate(-341 -193.39)"/><path class="cls-2" d="M421.45,193.39h-.27v42.7h.27a37.75,37.75,0,0,1,37.75,37.75h42.7A80.45,80.45,0,0,0,421.45,193.39Z" transform="translate(-341 -193.39)"/><path class="cls-3" d="M421.45,311.59h-.4v42.7h.4a80.45,80.45,0,0,0,80.45-80.45H459.2A37.75,37.75,0,0,1,421.45,311.59Z" transform="translate(-341 -193.39)"/><circle class="cls-4" cx="421.45" cy="397.68" r="22.44" transform="translate(-498.76 221.1) rotate(-45)"/></svg>